HIERARCHY
ROOT Hips
{
    OFFSET 0.000000 0.000000 0.000000
    CHANNELS 6 Xposition Yposition Zposition Zrotation Xrotation Yrotation
    JOINT Chest
    {
        OFFSET -0.000000 0.078598 0.000000
        CHANNELS 3 Zrotation Xrotation Yrotation
        JOINT Chest2
        {
            OFFSET -0.000000 0.230468 0.000000
            CHANNELS 3 Zrotation Xrotation Yrotation
            JOINT Neck
            {
                OFFSET -0.000000 0.249638 0.000000
                CHANNELS 3 Zrotation Xrotation Yrotation
                JOINT Head
                {
                    OFFSET -0.000000 0.103998 0.019170
                    CHANNELS 3 Zrotation Xrotation Yrotation
                    End Site
                    {
                        OFFSET -0.000000 0.191701 0.000000
                    }
                }
            }
            JOINT LeftCollar
            {
                OFFSET 0.038274 0.205938 -0.001496
                CHANNELS 3 Zrotation Xrotation Yrotation
                JOINT LeftShoulder
                {
                    OFFSET 0.132388 0.000000 0.000000
                    CHANNELS 3 Zrotation Xrotation Yrotation
                    JOINT LeftElbow
                    {
                        OFFSET 0.250301 0.000000 0.000000
                        CHANNELS 3 Zrotation Xrotation Yrotation
                        JOINT LeftWrist
                        {
                            OFFSET 0.285291 0.000000 0.000000
                            CHANNELS 3 Zrotation Xrotation Yrotation
                            End Site
                            {
                                OFFSET 0.000000 -0.143776 0.000000
                            }
                        }
                    }
                }
            }
            JOINT RightCollar
            {
                OFFSET -0.038406 0.205938 -0.001496
                CHANNELS 3 Zrotation Xrotation Yrotation
                JOINT RightShoulder
                {
                    OFFSET -0.132388 0.000000 0.000000
                    CHANNELS 3 Zrotation Xrotation Yrotation
                    JOINT RightElbow
                    {
                        OFFSET -0.250301 0.000000 0.000000
                        CHANNELS 3 Zrotation Xrotation Yrotation
                        JOINT RightWrist
                        {
                            OFFSET -0.285291 0.000000 0.000000
                            CHANNELS 3 Zrotation Xrotation Yrotation
                            End Site
                            {
                                OFFSET -0.000000 -0.143776 0.000000
                            }
                        }
                    }
                }
            }
        }
    }
    JOINT LeftHip
    {
        OFFSET 0.095851 0.000000 0.000000
        CHANNELS 3 Zrotation Xrotation Yrotation
        JOINT LeftKnee
        {
            OFFSET -0.000000 -0.406444 0.000000
            CHANNELS 3 Zrotation Xrotation Yrotation
            JOINT LeftAnkle
            {
                OFFSET -0.000000 -0.408443 0.000000
                CHANNELS 3 Zrotation Xrotation Yrotation
                JOINT LeftToe
                {
                    OFFSET -0.000000 -0.062303 0.143776
                    CHANNELS 3 Zrotation Xrotation Yrotation
                    End Site
                    {
                        OFFSET -0.000000 0.000000 0.038340
                    }
                }
            }
        }
    }
    JOINT RightHip
    {
        OFFSET -0.095851 0.000000 0.000000
        CHANNELS 3 Zrotation Xrotation Yrotation
        JOINT RightKnee
        {
            OFFSET -0.000000 -0.406444 0.000000
            CHANNELS 3 Zrotation Xrotation Yrotation
            JOINT RightAnkle
            {
                OFFSET -0.000000 -0.408443 0.000000
                CHANNELS 3 Zrotation Xrotation Yrotation
                JOINT RightToe
                {
                    OFFSET -0.000000 -0.062303 0.143776
                    CHANNELS 3 Zrotation Xrotation Yrotation
                    End Site
                    {
                        OFFSET -0.000000 0.000000 0.038340
                    }
                }
            }
        }
    }
}
MOTION
Frames:    8
Frame Time:    0.016667
0.007673    0.883885    0.370012    -0.328091    2.396816    -178.904922    -0.691411    -2.244510    0.102576    -0.750002    1.758616    0.051511    1.246500    5.419490    -0.273581    -4.184757    -0.404447    0.469111    13.567634    -0.260542    -3.372180    -15.279781    -1.854526    -8.052147    -1.108607    -7.403107    0.791863    94.522301    -3.261197    7.524320    -10.189647    -1.520384    0.882663    15.609419    -3.175546    4.988197    -3.274328    -8.840241    0.887688    -85.609833    1.118225    -8.858026    4.278598    10.106509    1.727419    -0.107349    -5.524364    7.072884    -5.228290    -6.158957    13.386498    0.000000    0.000000    0.000000    -6.579997    11.567944    2.469501    -0.507124    -8.681934    0.482878    4.852963    -4.710709    -16.430323    0.000000    0.000000    0.000000    
0.007600    0.883926    0.370132    -0.331482    2.417628    -178.926025    -0.717765    -2.222698    0.087461    -0.711900    1.765161    0.044975    1.229400    5.398570    -0.257258    -4.185852    -0.362063    0.482436    13.555316    -0.248675    -3.331953    -15.287862    -1.882101    -8.046116    -1.111674    -7.394596    0.800975    94.517395    -3.275003    7.516099    -10.216304    -1.520947    0.953470    15.614072    -3.186076    4.963950    -3.266593    -8.834884    0.868795    -85.508461    1.182919    -8.856786    4.264596    10.123492    1.720590    -0.098283    -5.528281    7.081114    -5.205140    -6.144761    13.391222    0.000000    0.000000    0.000000    -6.597659    11.575068    2.474064    -0.496142    -8.682040    0.477858    4.875420    -4.690625    -16.406799    0.000000    0.000000    0.000000    
0.007545    0.883985    0.370258    -0.332126    2.435215    -178.949509    -0.734399    -2.182035    0.104667    -0.675308    1.724941    0.050230    1.217664    5.422103    -0.253045    -4.242573    -0.326835    0.494101    13.514998    -0.229893    -3.355479    -15.275431    -1.894810    -8.015362    -1.095328    -7.318266    0.803233    94.311203    -3.426743    7.439682    -10.237941    -1.479970    0.959734    15.498408    -3.608512    4.946006    -2.964336    -8.641798    0.913871    -85.601822    1.177097    -8.663625    4.256268    10.135039    1.711367    -0.092655    -5.532320    7.063667    -5.275708    -6.193276    13.461936    0.000000    0.000000    0.000000    -6.612446    11.570922    2.486297    -0.481218    -8.673345    0.496338    4.901622    -4.673139    -16.423122    0.000000    0.000000    0.000000    
0.007537    0.884012    0.370419    -0.324064    2.444316    -178.967422    -0.735591    -2.165301    0.094486    -0.666264    1.717631    0.047613    1.218711    5.455442    -0.241986    -4.263107    -0.346759    0.507729    13.498609    -0.204840    -3.322042    -15.239088    -1.947722    -8.003204    -1.152574    -7.296815    0.767125    94.393677    -3.371227    7.418532    -10.230019    -1.452752    0.976373    15.480724    -3.684577    4.961634    -2.924806    -8.645183    0.954683    -85.357018    1.146583    -8.667571    4.263433    10.131704    1.706906    -0.094672    -5.518808    7.083841    -5.268119    -6.191869    13.457781    0.000000    0.000000    0.000000    -6.608213    11.556666    2.496045    -0.483780    -8.655832    0.505235    4.921326    -4.667035    -16.417753    0.000000    0.000000    0.000000    
0.007529    0.884054    0.370552    -0.326042    2.470317    -178.987762    -0.397384    -2.433959    -0.052938    -1.355097    2.192430    0.009447    1.515963    5.453642    -0.150840    -4.240583    -0.461893    0.649623    13.712512    -0.252869    -3.206325    -15.073514    -2.033988    -7.889560    -1.171481    -7.328965    0.803046    94.186081    -3.474165    7.447833    -9.617727    -1.651736    1.326580    15.477788    -2.861481    4.956151    -3.588801    -9.065068    0.770472    -84.922493    1.112217    -9.090549    4.255057    10.158630    1.713896    -0.096534    -5.529266    7.129142    -5.179819    -6.084273    13.418016    0.000000    0.000000    0.000000    -6.612847    11.569364    2.500572    -0.481017    -8.658902    0.478901    4.891980    -4.613934    -16.386259    0.000000    0.000000    0.000000    
0.007514    0.884090    0.370726    -0.322184    2.475187    -179.000946    -0.619790    -2.165461    0.066991    -0.920534    1.786816    0.042053    1.346993    5.488152    -0.214795    -4.264903    -0.364686    0.561552    13.576485    -0.197215    -3.246567    -15.174792    -1.935263    -8.012796    -1.147349    -7.368135    0.787987    94.231827    -3.495202    7.489489    -10.058305    -1.553110    1.089482    15.760359    -2.682528    4.978805    -3.651745    -9.093933    0.784395    -85.084221    1.162688    -9.119153    4.256942    10.150187    1.708175    -0.098239    -5.520231    7.167299    -5.225122    -6.071816    13.407863    0.000000    0.000000    0.000000    -6.611473    11.545135    2.489889    -0.476919    -8.631877    0.487875    4.898169    -4.603882    -16.379196    0.000000    0.000000    0.000000    
0.007496    0.884168    0.370859    -0.322382    2.477032    -179.024002    -0.675854    -2.065506    0.135456    -0.801272    1.641890    0.060820    1.266889    5.491515    -0.236847    -4.244301    -0.312093    0.520831    13.546056    -0.185351    -3.306804    -15.216994    -1.893954    -8.001187    -1.148939    -7.389614    0.753759    94.548134    -3.405131    7.517381    -10.250945    -1.505699    0.989170    15.900457    -2.646073    5.004725    -3.644681    -9.107260    0.746168    -85.041382    1.249508    -9.137916    4.249928    10.133612    1.725495    -0.088840    -5.501632    7.141931    -5.275200    -6.126957    13.454743    0.000000    0.000000    0.000000    -6.615872    11.523724    2.498226    -0.480559    -8.606804    0.506223    5.023235    -4.688354    -16.409456    0.000000    0.000000    0.000000    
0.007451    0.884202    0.370973    -0.314247    2.486884    -179.038223    -0.653834    -2.016886    0.156899    -0.821262    1.591312    0.068122    1.245261    5.524964    -0.239190    -4.210136    -0.332741    0.511572    13.549233    -0.206113    -3.330276    -15.238635    -1.768586    -7.970030    -1.090246    -7.372805    0.732378    94.100311    -3.750102    7.500185    -10.260494    -1.507564    0.965711    15.922508    -2.620330    5.007534    -3.628077    -9.041750    0.736011    -85.061234    1.251976    -9.072722    4.251940    10.133752    1.729243    -0.082532    -5.495075    7.172504    -5.203052    -6.061022    13.392809    0.000000    0.000000    0.000000    -6.618927    11.505065    2.511724    -0.465630    -8.585613    0.507437    4.954336    -4.614362    -16.395287    0.000000    0.000000    0.000000    
